<svg version="1.1" id="Layer_1" xmlns="http://www.w3.org/2000/svg" xmlns:xlink="http://www.w3.org/1999/xlink" x="0px" y="0px"
	 width="100%" viewBox="0 0 1024 1024" enable-background="new 0 0 1024 1024" xml:space="preserve">
<path fill="#070405" opacity="1.000000" stroke="none" 
	d="
M473.000000,1025.000000 
	C315.333344,1025.000000 158.166672,1025.000000 1.000000,1025.000000 
	C1.000000,683.666687 1.000000,342.333344 1.000000,1.000000 
	C342.333344,1.000000 683.666687,1.000000 1025.000000,1.000000 
	C1025.000000,342.333344 1025.000000,683.666687 1025.000000,1025.000000 
	C841.166687,1025.000000 657.333313,1025.000000 473.000000,1025.000000 
M565.993286,354.362549 
	C561.640381,370.154205 561.476929,385.308136 572.861084,398.671173 
	C572.852234,396.937225 572.517822,395.258820 571.940613,393.668549 
	C568.008789,382.835815 566.764954,371.706299 569.010071,360.410492 
	C569.967102,355.595276 572.158936,351.034882 573.562012,346.291351 
	C573.858704,345.288391 576.516663,342.155579 571.332886,342.962189 
	C571.068787,341.953674 570.804688,340.945160 570.505615,339.803040 
	C554.226868,351.283234 549.207520,382.123322 561.137207,398.447754 
	C561.018127,396.976135 561.098877,396.021667 560.847900,395.164307 
	C557.039124,382.156616 558.932983,369.476990 563.159119,356.984497 
	C563.640686,355.560822 565.241455,354.515747 565.993286,354.362549 
M479.427032,321.936035 
	C478.639191,320.751221 478.120056,318.965149 477.022003,318.474518 
	C465.873474,313.492798 456.408081,306.518951 449.991150,295.933624 
	C442.954987,301.176270 441.204895,311.861328 445.183502,323.185883 
	C448.561218,332.800079 458.241150,340.820282 465.833374,340.397308 
	C461.540741,335.590363 456.591125,331.136566 453.032715,325.761749 
	C449.351776,320.201935 447.912598,313.611908 449.411530,305.411987 
	C456.071014,317.715820 469.479401,323.990814 469.802765,338.816315 
	C471.671112,336.940277 472.984589,335.268768 474.046173,333.450165 
	C475.877075,330.313782 477.551331,327.085968 479.218079,324.813293 
	C479.452179,334.361694 477.640717,343.216553 470.669098,350.363953 
	C467.200836,353.919678 463.756348,357.500214 460.375824,361.138947 
	C459.295929,362.301361 458.456238,363.686981 457.069641,364.899048 
	C456.774323,364.908783 456.480743,364.936768 455.754395,364.394501 
	C453.862396,359.428558 451.970428,354.462616 450.125763,349.620819 
	C444.707062,363.231232 442.040802,377.450134 446.194733,392.206940 
	C450.219086,406.503265 459.487823,410.860229 473.390198,405.394440 
	C474.804718,404.838348 476.229584,404.308594 477.649658,403.766632 
	C471.150055,413.181366 461.567322,411.675476 451.814972,410.886505 
	C455.670441,415.371368 455.670441,415.371368 453.303711,421.189941 
	C451.146942,415.307373 446.650116,412.858307 441.341949,411.241669 
	C438.503296,410.377136 435.698303,409.123108 433.166199,407.574036 
	C407.727142,392.011017 396.356964,368.291260 393.943451,339.446716 
	C393.764404,337.306885 393.710022,335.156586 393.529083,331.700897 
	C392.240631,333.516724 391.802704,334.005066 391.507660,334.568268 
	C378.027954,360.301971 373.400513,387.628326 377.303558,416.332031 
	C379.391235,431.685211 384.467010,446.069672 393.436951,458.861176 
	C398.873840,466.614319 406.437531,470.132172 413.402740,468.484528 
	C384.595917,449.296478 377.328888,401.933624 382.014038,381.568695 
	C382.132141,383.198029 382.197418,383.824799 382.220215,384.453125 
	C382.932953,404.107544 388.034546,422.590393 397.849792,439.590088 
	C405.739532,453.254883 414.537537,466.120697 434.079865,463.152679 
	C429.822693,465.376495 425.565491,467.600281 419.900055,470.559692 
	C423.239746,470.559692 425.261597,470.822815 427.192474,470.515076 
	C436.521698,469.028229 443.968170,463.582245 452.325806,459.132904 
	C452.576660,459.268219 452.827515,459.403564 452.741943,460.161469 
	C448.764771,463.709076 445.008240,467.548340 440.771667,470.753021 
	C423.845123,483.556763 405.747375,481.332855 392.739502,464.224518 
	C392.127838,470.279755 391.094940,475.497253 391.181519,480.696075 
	C391.358704,491.333984 397.949921,500.803986 406.376984,503.205902 
	C415.108368,505.694550 423.809113,505.585449 432.382080,502.329529 
	C433.366058,501.955872 434.416077,501.755981 435.435455,501.475525 
	C435.668671,501.815460 435.901855,502.155426 436.135071,502.495361 
	C434.926636,503.599365 433.864502,504.949585 432.486542,505.768250 
	C422.100891,511.938629 411.834106,510.657776 401.658661,505.105835 
	C399.972870,504.186005 398.157013,503.504547 396.401276,502.712982 
	C395.884583,503.280670 395.367920,503.848389 394.851227,504.416107 
	C398.835785,510.405945 402.184265,516.973267 406.965668,522.239685 
	C412.965790,528.848511 421.327301,533.219360 430.201996,531.502502 
	C442.701172,529.084473 454.183716,523.260376 463.339203,514.112122 
	C467.306610,510.147827 471.475952,507.464386 476.878693,506.356659 
	C491.772186,503.303253 501.810577,495.243683 504.978241,479.643219 
	C505.504730,477.050293 507.556824,473.880524 509.809906,472.685822 
	C517.533997,468.590088 525.661072,465.254425 534.078491,462.056671 
	C534.229370,462.196167 534.380249,462.335632 534.273499,463.107727 
	C530.317139,468.052612 526.360779,472.997528 522.565979,477.740540 
	C549.244141,473.861938 572.348083,441.690704 562.090332,422.260834 
	C559.679382,435.368530 555.723877,442.767120 548.282593,447.390259 
	C548.812683,445.887512 549.173828,444.861725 549.536255,443.836395 
	C552.724731,434.817596 554.879517,425.599304 553.908264,415.972412 
	C553.674927,413.659698 552.753174,411.083282 551.327515,409.275024 
	C535.460083,389.148468 534.811340,360.952393 550.132141,340.102417 
	C553.026062,336.164154 553.781677,332.224854 551.677490,328.023041 
	C550.133362,324.939606 548.256775,321.862976 545.906311,319.369720 
	C533.892822,306.626007 518.545532,304.313049 502.217804,306.633972 
	C495.520996,307.585876 489.054016,310.154663 482.482483,311.987946 
	C482.630737,312.365143 482.778992,312.742340 482.927277,313.119537 
	C488.394043,314.420166 493.860840,315.720825 500.183228,317.225037 
	C492.652283,319.180511 486.291046,320.832306 479.427032,321.936035 
M706.649353,613.287964 
	C700.942627,604.296143 695.265808,595.284912 689.491882,586.336426 
	C688.753845,585.192566 687.555054,583.599731 686.492981,583.538086 
	C681.422058,583.243896 676.324768,583.406250 671.274597,583.406250 
	C671.274597,603.087036 671.274597,621.846436 671.274597,640.844727 
	C676.666382,640.844727 681.740845,640.844727 687.334778,640.844727 
	C687.334778,630.172241 687.334778,619.719482 687.334778,608.690125 
	C694.132080,619.298584 700.459961,629.268738 706.927612,639.147400 
	C707.724548,640.364624 709.214172,641.826294 710.473755,641.917480 
	C715.063904,642.249817 719.692749,642.048767 724.243896,642.048767 
	C724.243896,622.478577 724.243896,603.231384 724.243896,583.795166 
	C718.709351,583.795166 713.625732,583.795166 708.159546,583.795166 
	C708.159546,592.189453 708.216431,600.322021 708.115845,608.452515 
	C708.093384,610.272705 707.518921,612.086060 706.649353,613.287964 
M463.113556,612.658325 
	C462.360870,611.885315 461.447327,611.214539 460.880737,610.323181 
	C455.888947,602.470093 451.008423,594.545837 445.960480,586.729553 
	C445.146576,585.469238 443.719879,583.827148 442.488464,583.749023 
	C437.257599,583.417358 431.993561,583.608215 426.881989,583.608215 
	C426.881989,602.640442 426.881989,621.036804 426.881989,639.484131 
	C432.207245,639.484131 437.132843,639.484131 442.615479,639.484131 
	C442.615479,628.936890 442.615479,618.618713 442.615479,606.983582 
	C449.442291,617.830261 455.471985,627.488831 461.621674,637.070374 
	C462.300690,638.128296 463.632019,639.399109 464.718689,639.455444 
	C469.653168,639.711487 474.608459,639.567627 479.711792,639.567627 
	C479.711792,620.739807 479.711792,602.210022 479.711792,583.664062 
	C474.322479,583.664062 469.256409,583.664062 463.534149,583.664062 
	C463.534149,593.345886 463.534149,602.651062 463.113556,612.658325 
M300.865082,638.579834 
	C297.419952,632.593506 293.974823,626.607178 290.300751,620.223022 
	C301.869812,614.946594 300.752106,605.226685 299.481506,596.202698 
	C298.388733,588.441956 291.916870,584.622314 284.751312,584.206787 
	C272.879333,583.518250 260.938385,584.019409 249.443390,584.019409 
	C249.443390,603.868286 249.443390,623.744324 249.443390,643.445984 
	C255.457764,643.445984 260.710663,643.445984 266.515076,643.445984 
	C266.515076,636.124390 266.515076,629.237305 266.515076,622.613525 
	C271.989685,621.251282 275.191833,622.786438 277.119324,627.751465 
	C278.792236,632.060730 281.247528,636.077759 283.509399,640.139099 
	C284.095215,641.190918 285.221069,642.645203 286.152405,642.685791 
	C291.665314,642.926025 297.194031,642.804260 303.450043,642.804260 
	C302.266449,640.908569 301.742462,640.069397 300.865082,638.579834 
M325.285828,636.247742 
	C325.285828,630.318115 325.285828,624.388489 325.285828,618.474731 
	C332.202606,618.474731 338.402649,618.474731 344.917877,618.474731 
	C344.917877,626.145996 344.917877,633.424377 344.917877,640.680786 
	C350.504272,640.680786 355.757172,640.680786 361.133728,640.680786 
	C361.133728,621.515930 361.133728,602.648804 361.133728,583.883423 
	C355.516724,583.883423 350.309662,583.883423 344.787231,583.883423 
	C344.787231,591.065735 344.787231,597.835449 344.787231,604.816345 
	C338.212128,604.816345 331.973938,604.816345 325.178955,604.816345 
	C325.178955,597.639771 325.178955,590.731445 325.178955,583.754456 
	C319.247894,583.754456 313.882019,583.754456 308.273987,583.754456 
	C308.273987,593.794678 308.273956,603.443115 308.273956,613.091614 
	C308.273956,622.662109 308.273987,632.232605 308.273987,641.809509 
	C314.245209,641.809509 319.541321,641.809509 325.070984,641.809509 
	C325.148132,640.138489 325.216461,638.658875 325.285828,636.247742 
M464.991821,303.176880 
	C495.369202,285.480774 543.942566,281.239319 574.618835,316.695068 
	C581.046387,310.468170 589.032104,308.450409 598.352722,308.717194 
	C593.424744,299.516357 586.462585,293.177399 578.523987,288.018921 
	C553.790833,271.947388 527.127563,270.452911 499.489136,278.542999 
	C486.053406,282.475830 473.943420,288.925415 464.203918,299.285004 
	C461.953613,301.678589 461.922485,301.649323 464.991821,303.176880 
M583.189575,392.268066 
	C587.167419,400.460876 592.322632,407.762360 599.751465,413.179199 
	C617.075623,425.811310 639.196716,420.454865 646.567383,401.928284 
	C655.230591,380.152893 645.410828,351.330780 625.058472,339.576508 
	C605.231934,328.125946 580.945312,337.474396 578.616333,362.757141 
	C577.692200,372.789215 579.299683,382.286987 583.189575,392.268066 
M550.489624,632.312195 
	C550.489624,634.587341 550.489624,636.862427 550.489624,639.499023 
	C556.299683,639.499023 561.512695,639.499023 567.093384,639.499023 
	C567.093384,631.986267 567.093384,624.722961 567.093384,617.318420 
	C573.578186,617.318420 579.699280,617.318420 586.444946,617.318420 
	C586.444946,624.866394 586.444946,632.285950 586.444946,639.830322 
	C592.177307,639.830322 597.284729,639.830322 602.617798,639.830322 
	C602.617798,621.102234 602.617798,602.562500 602.617798,583.718506 
	C597.243774,583.718506 592.166992,583.718506 586.558350,583.718506 
	C586.558350,590.500183 586.558350,597.230896 586.558350,604.273315 
	C579.813416,604.273315 573.596619,604.273315 566.765686,604.273315 
	C566.765686,597.251770 566.765686,590.543823 566.765686,583.749878 
	C561.071594,583.749878 555.994141,583.749878 550.474426,583.749878 
	C550.474426,599.812866 550.474426,615.583130 550.489624,632.312195 
M487.982819,597.936035 
	C487.983215,605.752075 487.974823,613.568054 487.986298,621.384094 
	C488.000397,631.008606 492.106750,637.464050 501.625610,638.763794 
	C510.522003,639.978516 519.902954,639.886597 528.768311,638.473267 
	C538.163696,636.975403 542.248474,630.060730 542.149475,620.237488 
	C542.085815,613.918762 542.105530,607.598694 542.141907,601.279602 
	C542.193115,592.374573 537.957764,585.355896 529.344971,584.257324 
	C519.767639,583.035767 509.822662,583.213501 500.206970,584.291443 
	C493.666687,585.024597 488.954712,589.782227 487.982819,597.936035 
M658.190369,583.497864 
	C654.413635,583.497864 650.636841,583.497864 646.524597,583.497864 
	C646.524597,595.373474 646.471069,606.660767 646.543213,617.947266 
	C646.592590,625.671875 644.429321,628.077637 637.089905,628.075317 
	C629.853333,628.073059 627.928040,625.947998 627.964722,618.327454 
	C628.019897,606.883179 627.979126,595.438477 627.979126,583.709290 
	C622.306091,583.709290 617.219910,583.709290 611.843506,583.709290 
	C611.778015,585.187500 611.668457,586.652771 611.655273,588.118896 
	C611.551941,599.606934 611.388916,611.095276 611.405029,622.583252 
	C611.415222,629.869324 614.526184,635.612366 621.300354,638.578125 
	C630.656128,642.674011 640.519470,642.468384 650.091980,639.767334 
	C658.320007,637.445618 662.734680,630.731384 662.804688,622.046448 
	C662.898743,610.390686 662.671997,598.732056 662.798767,587.077026 
	C662.830444,584.160278 661.846130,583.136597 658.190369,583.497864 
M758.210083,643.298218 
	C759.839844,643.298218 761.469604,643.298218 763.582764,643.298218 
	C763.582764,627.592590 763.582764,612.364319 763.582764,596.443481 
	C769.262573,596.443481 774.472595,596.443481 779.671509,596.443481 
	C779.671509,591.800049 779.671509,587.861450 779.671509,583.684570 
	C763.024231,583.684570 746.611877,583.684570 730.129578,583.684570 
	C730.129578,588.062622 730.129578,592.261536 730.129578,596.855347 
	C735.975647,596.855347 741.405090,596.855347 747.349976,596.855347 
	C747.349976,612.477234 747.349976,627.701111 747.349976,643.307312 
	C751.022400,643.307312 754.162537,643.307312 758.210083,643.298218 
M392.751434,601.731873 
	C389.997131,596.621155 387.307129,591.473938 384.439850,586.427429 
	C383.784149,585.273315 382.557709,583.684631 381.524567,583.630981 
	C376.123993,583.350403 370.701019,583.500000 364.829376,583.500000 
	C371.048553,593.952026 376.763977,603.832336 382.782959,613.524109 
	C384.890656,616.918030 385.897278,620.197449 385.588989,624.237122 
	C385.190155,629.463684 385.491730,634.743713 385.491730,640.052612 
	C391.290558,640.052612 396.534698,640.052612 402.001068,640.052612 
	C402.001068,634.985535 402.295898,630.148743 401.920532,625.364502 
	C401.522125,620.286377 402.996613,616.042664 405.686707,611.839722 
	C411.494843,602.765320 417.024170,593.512451 423.169952,583.515320 
	C417.945984,583.515320 413.329193,583.291565 408.755096,583.635193 
	C407.126221,583.757568 404.998932,584.866333 404.136566,586.197083 
	C401.072113,590.925720 398.509705,595.976868 395.611389,600.818726 
	C395.156616,601.578491 393.946136,601.885864 392.751434,601.731873 
M405.277893,680.978882 
	C406.281708,681.557800 407.285522,682.136719 408.289368,682.715759 
	C407.430084,683.524414 406.607971,684.963989 405.704163,685.017334 
	C403.453491,685.149902 401.155273,684.721863 398.895538,684.387634 
	C396.326385,684.007690 393.778320,683.485168 390.690247,682.928955 
	C391.729126,688.279663 394.267426,690.965088 398.311340,690.970276 
	C403.887787,690.977417 410.163605,693.288330 414.561554,687.539551 
	C415.044617,686.908142 415.287659,686.043701 415.481384,685.248230 
	C417.153320,678.382446 413.907684,675.079651 405.274078,674.553589 
	C403.050720,674.418152 400.856934,673.744446 398.674591,673.214722 
	C398.599518,673.196472 398.736420,671.539551 398.873810,671.523987 
	C401.605865,671.214722 404.352356,671.031738 407.097015,670.838623 
	C407.246918,670.828003 407.401276,670.975769 407.562012,671.009033 
	C409.991486,671.512512 412.422424,672.009155 415.201050,672.578674 
	C414.548920,666.783325 411.969116,664.465881 407.465729,664.328064 
	C404.636475,664.241516 401.789978,664.139709 398.973358,664.346497 
	C394.052002,664.707825 391.419983,667.379822 391.338470,671.754456 
	C391.223022,677.950012 392.446960,679.514099 398.395721,680.452759 
	C400.361725,680.762878 402.371948,680.792542 405.277893,680.978882 
M616.062683,683.684204 
	C614.284119,683.684204 612.505615,683.684204 610.594421,683.684204 
	C610.296875,687.939636 612.598145,690.295532 615.807251,690.773926 
	C619.852173,691.377014 624.126038,691.315369 628.183716,690.728455 
	C632.675659,690.078796 634.260559,686.798828 633.984436,681.254639 
	C633.755432,676.655518 631.123901,674.831055 626.909058,674.600769 
	C625.417419,674.519287 623.857300,674.760376 622.444763,674.399292 
	C620.669006,673.945374 619.012451,673.024719 617.304443,672.305481 
	C619.141541,671.650818 620.945312,670.859375 622.830139,670.401123 
	C623.730286,670.182251 624.802063,670.517639 625.765015,670.737915 
	C628.300537,671.317932 630.819092,671.972290 633.344360,672.596985 
	C633.724792,671.865967 634.105164,671.134888 634.485596,670.403809 
	C632.513855,668.492981 630.777710,665.370544 628.519836,664.931580 
	C624.241028,664.099854 619.585083,664.316589 615.230652,665.008667 
	C610.592712,665.746033 610.482178,669.742676 610.563354,673.620850 
	C610.641174,677.339478 612.062500,679.676697 615.917725,680.108704 
	C618.883972,680.440979 621.878113,680.581604 624.816345,681.069153 
	C625.673828,681.211426 626.382019,682.252930 627.158630,682.882324 
	C626.418579,683.589600 625.670105,684.905701 624.940063,684.895630 
	C622.220947,684.858154 619.507874,684.385071 616.062683,683.684204 
M506.747650,685.237183 
	C506.747650,687.028870 506.747650,688.820618 506.747650,690.925781 
	C512.589233,690.925781 517.902344,691.155212 523.185242,690.854187 
	C527.522583,690.607117 531.523560,688.393555 531.478516,683.809265 
	C531.415894,677.443176 534.625610,669.833435 526.702698,665.402771 
	C526.140320,665.088196 525.446838,664.851074 524.812500,664.846619 
	C518.895081,664.804871 512.977234,664.821899 506.743805,664.821899 
	C506.743805,671.706665 506.743805,678.002380 506.747650,685.237183 
M595.684875,673.866577 
	C595.193848,666.814636 593.079834,664.663513 586.264221,664.370911 
	C584.436035,664.292419 582.601868,664.340942 580.770569,664.349487 
	C572.717896,664.387207 570.604065,666.768921 570.161011,674.616638 
	C569.147217,692.575256 574.185181,691.294067 587.109009,691.009033 
	C592.712585,690.885498 595.645813,687.796509 595.719971,682.262878 
	C595.753418,679.766235 595.700378,677.268433 595.684875,673.866577 
M589.993103,335.362000 
	C596.202026,333.440399 602.410889,331.518768 609.789124,329.235260 
	C606.826050,324.311035 604.695984,316.218109 599.693237,313.586761 
	C593.143555,310.141754 584.941162,313.149719 579.595581,318.169647 
	C582.061890,325.078918 584.317688,331.398590 586.601990,337.797974 
	C587.315918,337.285248 588.347107,336.544678 589.993103,335.362000 
M484.354248,668.949463 
	C484.287598,672.606995 483.969330,676.281555 484.216492,679.917786 
	C484.542023,684.706482 481.652527,684.700562 478.191437,684.861938 
	C474.351776,685.041016 472.636230,683.749512 472.776031,679.783997 
	C472.948639,674.887512 472.817322,669.980286 472.817322,665.149170 
	C470.307159,665.149170 468.585938,665.149170 466.269867,665.149170 
	C466.269867,671.459290 466.239105,677.429260 466.279816,683.398804 
	C466.311096,687.985962 468.839874,690.431763 473.235931,690.995911 
	C483.769989,692.347961 489.828949,690.549194 490.321075,685.241943 
	C490.940186,678.565308 490.470306,671.787598 490.470306,664.736633 
	C487.586060,665.407349 483.926636,663.072754 484.354248,668.949463 
M337.253693,677.985657 
	C349.146912,677.985657 361.040131,677.985657 373.172974,677.985657 
	C373.083282,676.419250 373.000916,674.980408 372.886658,672.984619 
	C347.114655,673.574646 321.633484,674.158081 296.152313,674.741516 
	C296.152649,675.346252 296.153015,675.950989 296.153381,676.555725 
	C309.535187,677.026245 322.917023,677.496826 337.253693,677.985657 
M679.416321,673.515869 
	C670.303650,673.515869 661.191040,673.515869 651.534607,673.515869 
	C651.688904,675.512451 651.806213,677.030640 651.935791,678.707336 
	C676.572815,678.688049 700.685608,678.330872 724.675537,674.782471 
	C709.912537,674.379028 695.149536,673.975647 679.416321,673.515869 
M429.201416,666.774231 
	C428.632812,673.966614 435.121582,668.892456 437.638000,671.914612 
	C437.638000,677.804871 437.638000,684.213196 437.638000,690.784790 
	C439.980103,690.784790 441.931000,690.784790 444.326416,690.784790 
	C444.326416,684.089233 444.326416,677.538574 444.326416,670.726074 
	C447.281433,670.459534 449.825928,670.230042 452.382996,669.999390 
	C452.382996,668.111633 452.382996,666.562866 452.382996,664.678833 
	C446.254730,664.678833 440.464722,664.580139 434.681702,664.736938 
	C432.867615,664.786133 431.072144,665.522522 429.201416,666.774231 
M425.728516,391.337677 
	C424.322845,391.969788 422.917206,392.601898 421.293274,393.332123 
	C426.828705,401.522003 434.276459,405.702087 442.326324,407.756653 
	C439.937775,400.309021 437.550140,392.864288 435.291626,385.822235 
	C432.809814,387.279297 429.600586,389.163422 425.728516,391.337677 
M425.890381,358.335754 
	C422.338684,368.633545 421.949646,376.825623 424.957245,382.408661 
	C425.053131,365.587219 432.580994,351.717438 440.718170,337.972839 
	C433.737976,343.063446 429.184601,349.779266 425.890381,358.335754 
M548.004700,665.772217 
	C548.004700,674.128052 548.004700,682.483826 548.004700,690.750671 
	C550.320740,690.750671 552.113403,690.750671 554.123657,690.750671 
	C554.123657,682.182190 554.123657,673.794312 554.123657,665.011475 
	C552.135437,665.011475 550.350403,665.011475 548.004700,665.772217 
z"/>
<path fill="#FBFBFB" opacity="1.000000" stroke="none" 
	d="
M451.636414,458.627136 
	C443.968170,463.582245 436.521698,469.028229 427.192474,470.515076 
	C425.261597,470.822815 423.239746,470.559692 419.900055,470.559692 
	C425.565491,467.600281 429.822693,465.376495 434.079865,463.152679 
	C414.537537,466.120697 405.739532,453.254883 397.849792,439.590088 
	C388.034546,422.590393 382.932953,404.107544 382.220215,384.453125 
	C382.197418,383.824799 382.132141,383.198029 382.014038,381.568695 
	C377.328888,401.933624 384.595917,449.296478 413.402740,468.484528 
	C406.437531,470.132172 398.873840,466.614319 393.436951,458.861176 
	C384.467010,446.069672 379.391235,431.685211 377.303558,416.332031 
	C373.400513,387.628326 378.027954,360.301971 391.507660,334.568268 
	C391.802704,334.005066 392.240631,333.516724 393.529083,331.700897 
	C393.710022,335.156586 393.764404,337.306885 393.943451,339.446716 
	C396.356964,368.291260 407.727142,392.011017 433.166199,407.574036 
	C435.698303,409.123108 438.503296,410.377136 441.341949,411.241669 
	C446.650116,412.858307 451.146942,415.307373 453.303711,421.189941 
	C455.670441,415.371368 455.670441,415.371368 451.814972,410.886505 
	C461.567322,411.675476 471.150055,413.181366 477.649658,403.766632 
	C476.229584,404.308594 474.804718,404.838348 473.390198,405.394440 
	C459.487823,410.860229 450.219086,406.503265 446.194733,392.206940 
	C442.040802,377.450134 444.707062,363.231232 450.125763,349.620819 
	C451.970428,354.462616 453.862396,359.428558 456.016296,365.035065 
	C459.868408,373.178436 464.585175,379.593781 472.240417,383.189026 
	C467.294678,377.073578 462.400635,371.022034 457.506592,364.970459 
	C458.456238,363.686981 459.295929,362.301361 460.375824,361.138947 
	C463.756348,357.500214 467.200836,353.919678 470.669098,350.363953 
	C477.640717,343.216553 479.452179,334.361694 479.441833,324.250244 
	C479.753662,323.286133 479.841736,322.885071 479.929810,322.484070 
	C486.291046,320.832306 492.652283,319.180511 500.183228,317.225037 
	C493.860840,315.720825 488.394043,314.420166 482.927277,313.119537 
	C482.778992,312.742340 482.630737,312.365143 482.482483,311.987946 
	C489.054016,310.154663 495.520996,307.585876 502.217804,306.633972 
	C518.545532,304.313049 533.892822,306.626007 545.906311,319.369720 
	C548.256775,321.862976 550.133362,324.939606 551.677490,328.023041 
	C553.781677,332.224854 553.026062,336.164154 550.132141,340.102417 
	C534.811340,360.952393 535.460083,389.148468 551.327515,409.275024 
	C552.753174,411.083282 553.674927,413.659698 553.908264,415.972412 
	C554.879517,425.599304 552.724731,434.817596 549.536255,443.836395 
	C549.173828,444.861725 548.812683,445.887512 548.282593,447.390259 
	C555.723877,442.767120 559.679382,435.368530 562.090332,422.260834 
	C572.348083,441.690704 549.244141,473.861938 522.565979,477.740540 
	C526.360779,472.997528 530.317139,468.052612 534.616516,462.566101 
	C534.935303,461.763855 534.911072,461.503174 534.886780,461.242523 
	C534.469360,461.371338 534.051941,461.500153 533.634521,461.628967 
	C525.661072,465.254425 517.533997,468.590088 509.809906,472.685822 
	C507.556824,473.880524 505.504730,477.050293 504.978241,479.643219 
	C501.810577,495.243683 491.772186,503.303253 476.878693,506.356659 
	C471.475952,507.464386 467.306610,510.147827 463.339203,514.112122 
	C454.183716,523.260376 442.701172,529.084473 430.201996,531.502502 
	C421.327301,533.219360 412.965790,528.848511 406.965668,522.239685 
	C402.184265,516.973267 398.835785,510.405945 394.851227,504.416107 
	C395.367920,503.848389 395.884583,503.280670 396.401276,502.712982 
	C398.157013,503.504547 399.972870,504.186005 401.658661,505.105835 
	C411.834106,510.657776 422.100891,511.938629 432.486542,505.768250 
	C433.864502,504.949585 434.926636,503.599365 436.135071,502.495361 
	C435.901855,502.155426 435.668671,501.815460 435.435455,501.475525 
	C434.416077,501.755981 433.366058,501.955872 432.382080,502.329529 
	C423.809113,505.585449 415.108368,505.694550 406.376984,503.205902 
	C397.949921,500.803986 391.358704,491.333984 391.181519,480.696075 
	C391.094940,475.497253 392.127838,470.279755 392.739502,464.224518 
	C405.747375,481.332855 423.845123,483.556763 440.771667,470.753021 
	C445.008240,467.548340 448.764771,463.709076 453.125305,459.768158 
	C453.780151,459.022491 454.051636,458.670105 454.555908,458.163269 
	C454.362457,457.774841 453.936310,457.540924 453.234070,457.409241 
	C452.517487,457.883362 452.076935,458.255249 451.636414,458.627136 
M435.794220,500.681396 
	C435.810516,501.103790 435.826813,501.526215 435.843109,501.948608 
	C436.285095,501.687164 436.727081,501.425720 437.704834,500.975342 
	C437.312592,500.737457 436.920319,500.499542 435.794220,500.681396 
M462.913116,498.225037 
	C465.238251,497.438690 467.563354,496.652344 469.888489,495.865997 
	C469.373047,495.677094 468.857605,495.488220 468.342163,495.299316 
	C468.787018,492.278687 468.494598,488.856415 469.865417,486.340271 
	C471.535736,483.274475 474.873291,482.359558 478.594666,483.717529 
	C481.890381,484.920166 482.210815,482.304504 482.241272,480.090881 
	C482.295349,476.157898 478.416412,472.854553 473.585236,472.904541 
	C466.260223,472.980377 460.149292,475.983551 456.412079,482.278717 
	C452.438812,488.971466 454.088776,495.801910 457.174072,502.599030 
	C459.126892,501.075348 460.696503,499.850677 462.913116,498.225037 
z"/>
<path fill="#F9F9F9" opacity="1.000000" stroke="none" 
	d="
M706.923950,613.595215 
	C707.518921,612.086060 708.093384,610.272705 708.115845,608.452515 
	C708.216431,600.322021 708.159546,592.189453 708.159546,583.795166 
	C713.625732,583.795166 718.709351,583.795166 724.243896,583.795166 
	C724.243896,603.231384 724.243896,622.478577 724.243896,642.048767 
	C719.692749,642.048767 715.063904,642.249817 710.473755,641.917480 
	C709.214172,641.826294 707.724548,640.364624 706.927612,639.147400 
	C700.459961,629.268738 694.132080,619.298584 687.334778,608.690125 
	C687.334778,619.719482 687.334778,630.172241 687.334778,640.844727 
	C681.740845,640.844727 676.666382,640.844727 671.274597,640.844727 
	C671.274597,621.846436 671.274597,603.087036 671.274597,583.406250 
	C676.324768,583.406250 681.422058,583.243896 686.492981,583.538086 
	C687.555054,583.599731 688.753845,585.192566 689.491882,586.336426 
	C695.265808,595.284912 700.942627,604.296143 706.923950,613.595215 
z"/>
<path fill="#FAFAFA" opacity="1.000000" stroke="none" 
	d="
M463.323853,612.307251 
	C463.534149,602.651062 463.534149,593.345886 463.534149,583.664062 
	C469.256409,583.664062 474.322479,583.664062 479.711792,583.664062 
	C479.711792,602.210022 479.711792,620.739807 479.711792,639.567627 
	C474.608459,639.567627 469.653168,639.711487 464.718689,639.455444 
	C463.632019,639.399109 462.300690,638.128296 461.621674,637.070374 
	C455.471985,627.488831 449.442291,617.830261 442.615479,606.983582 
	C442.615479,618.618713 442.615479,628.936890 442.615479,639.484131 
	C437.132843,639.484131 432.207245,639.484131 426.881989,639.484131 
	C426.881989,621.036804 426.881989,602.640442 426.881989,583.608215 
	C431.993561,583.608215 437.257599,583.417358 442.488464,583.749023 
	C443.719879,583.827148 445.146576,585.469238 445.960480,586.729553 
	C451.008423,594.545837 455.888947,602.470093 460.880737,610.323181 
	C461.447327,611.214539 462.360870,611.885315 463.323853,612.307251 
z"/>
<path fill="#F8F7F8" opacity="1.000000" stroke="none" 
	d="
M301.041809,638.905029 
	C301.742462,640.069397 302.266449,640.908569 303.450043,642.804260 
	C297.194031,642.804260 291.665314,642.926025 286.152405,642.685791 
	C285.221069,642.645203 284.095215,641.190918 283.509399,640.139099 
	C281.247528,636.077759 278.792236,632.060730 277.119324,627.751465 
	C275.191833,622.786438 271.989685,621.251282 266.515076,622.613525 
	C266.515076,629.237305 266.515076,636.124390 266.515076,643.445984 
	C260.710663,643.445984 255.457764,643.445984 249.443390,643.445984 
	C249.443390,623.744324 249.443390,603.868286 249.443390,584.019409 
	C260.938385,584.019409 272.879333,583.518250 284.751312,584.206787 
	C291.916870,584.622314 298.388733,588.441956 299.481506,596.202698 
	C300.752106,605.226685 301.869812,614.946594 290.300751,620.223022 
	C293.974823,626.607178 297.419952,632.593506 301.041809,638.905029 
M275.977844,609.651062 
	C276.640289,609.584106 277.301697,609.504211 277.965302,609.452148 
	C282.472046,609.099182 284.290497,606.681702 284.149170,602.173950 
	C284.006042,597.608887 281.119080,596.634216 277.522888,596.492004 
	C273.767883,596.343506 270.002472,596.458862 266.331818,596.458862 
	C266.331818,601.300964 266.331818,605.371277 266.331818,609.715332 
	C269.491699,609.715332 272.292328,609.715332 275.977844,609.651062 
z"/>
<path fill="#F8F8F8" opacity="1.000000" stroke="none" 
	d="
M325.285309,636.713501 
	C325.216461,638.658875 325.148132,640.138489 325.070984,641.809509 
	C319.541321,641.809509 314.245209,641.809509 308.273987,641.809509 
	C308.273987,632.232605 308.273956,622.662109 308.273956,613.091614 
	C308.273956,603.443115 308.273987,593.794678 308.273987,583.754456 
	C313.882019,583.754456 319.247894,583.754456 325.178955,583.754456 
	C325.178955,590.731445 325.178955,597.639771 325.178955,604.816345 
	C331.973938,604.816345 338.212128,604.816345 344.787231,604.816345 
	C344.787231,597.835449 344.787231,591.065735 344.787231,583.883423 
	C350.309662,583.883423 355.516724,583.883423 361.133728,583.883423 
	C361.133728,602.648804 361.133728,621.515930 361.133728,640.680786 
	C355.757172,640.680786 350.504272,640.680786 344.917877,640.680786 
	C344.917877,633.424377 344.917877,626.145996 344.917877,618.474731 
	C338.402649,618.474731 332.202606,618.474731 325.285828,618.474731 
	C325.285828,624.388489 325.285828,630.318115 325.285309,636.713501 
z"/>
<path fill="#F8F8F8" opacity="1.000000" stroke="none" 
	d="
M464.709076,303.385498 
	C461.922485,301.649323 461.953613,301.678589 464.203918,299.285004 
	C473.943420,288.925415 486.053406,282.475830 499.489136,278.542999 
	C527.127563,270.452911 553.790833,271.947388 578.523987,288.018921 
	C586.462585,293.177399 593.424744,299.516357 598.352722,308.717194 
	C589.032104,308.450409 581.046387,310.468170 574.618835,316.695068 
	C543.942566,281.239319 495.369202,285.480774 464.709076,303.385498 
z"/>
<path fill="#F6F6F6" opacity="1.000000" stroke="none" 
	d="
M583.058044,391.913971 
	C579.299683,382.286987 577.692200,372.789215 578.616333,362.757141 
	C580.945312,337.474396 605.231934,328.125946 625.058472,339.576508 
	C645.410828,351.330780 655.230591,380.152893 646.567383,401.928284 
	C639.196716,420.454865 617.075623,425.811310 599.751465,413.179199 
	C592.322632,407.762360 587.167419,400.460876 583.058044,391.913971 
M638.140808,401.594177 
	C651.420776,384.710754 640.408997,357.391388 626.331238,348.961975 
	C610.084900,339.234039 595.037537,345.726257 592.634766,364.420776 
	C590.502869,381.007294 596.415100,394.900116 610.019531,404.955841 
	C619.599304,412.036682 629.580261,410.836395 638.140808,401.594177 
z"/>
<path fill="#F8F7F8" opacity="1.000000" stroke="none" 
	d="
M550.482056,631.832764 
	C550.474426,615.583130 550.474426,599.812866 550.474426,583.749878 
	C555.994141,583.749878 561.071594,583.749878 566.765686,583.749878 
	C566.765686,590.543823 566.765686,597.251770 566.765686,604.273315 
	C573.596619,604.273315 579.813416,604.273315 586.558350,604.273315 
	C586.558350,597.230896 586.558350,590.500183 586.558350,583.718506 
	C592.166992,583.718506 597.243774,583.718506 602.617798,583.718506 
	C602.617798,602.562500 602.617798,621.102234 602.617798,639.830322 
	C597.284729,639.830322 592.177307,639.830322 586.444946,639.830322 
	C586.444946,632.285950 586.444946,624.866394 586.444946,617.318420 
	C579.699280,617.318420 573.578186,617.318420 567.093384,617.318420 
	C567.093384,624.722961 567.093384,631.986267 567.093384,639.499023 
	C561.512695,639.499023 556.299683,639.499023 550.489624,639.499023 
	C550.489624,636.862427 550.489624,634.587341 550.482056,631.832764 
z"/>
<path fill="#FAFAFA" opacity="1.000000" stroke="none" 
	d="
M488.022736,597.493286 
	C488.954712,589.782227 493.666687,585.024597 500.206970,584.291443 
	C509.822662,583.213501 519.767639,583.035767 529.344971,584.257324 
	C537.957764,585.355896 542.193115,592.374573 542.141907,601.279602 
	C542.105530,607.598694 542.085815,613.918762 542.149475,620.237488 
	C542.248474,630.060730 538.163696,636.975403 528.768311,638.473267 
	C519.902954,639.886597 510.522003,639.978516 501.625610,638.763794 
	C492.106750,637.464050 488.000397,631.008606 487.986298,621.384094 
	C487.974823,613.568054 487.983215,605.752075 488.022736,597.493286 
M525.957825,606.632080 
	C525.963623,605.467163 525.836304,604.283264 525.998535,603.140564 
	C526.662598,598.462830 523.968689,596.356750 519.992798,595.490540 
	C512.328979,593.820862 505.810974,595.668213 504.361938,599.771973 
	C504.093201,600.533020 504.032074,601.402893 504.040955,602.220764 
	C504.104218,608.044922 504.127960,613.871460 504.330444,619.691467 
	C504.480011,623.989380 506.903656,626.457581 511.148651,626.854492 
	C513.623047,627.085815 516.148438,627.051086 518.630249,626.863098 
	C523.244934,626.513489 525.782837,623.773621 525.911987,619.074341 
	C526.017029,615.249390 525.946655,611.419556 525.957825,606.632080 
z"/>
<path fill="#F8F8F8" opacity="1.000000" stroke="none" 
	d="
M658.644409,583.511475 
	C661.846130,583.136597 662.830444,584.160278 662.798767,587.077026 
	C662.671997,598.732056 662.898743,610.390686 662.804688,622.046448 
	C662.734680,630.731384 658.320007,637.445618 650.091980,639.767334 
	C640.519470,642.468384 630.656128,642.674011 621.300354,638.578125 
	C614.526184,635.612366 611.415222,629.869324 611.405029,622.583252 
	C611.388916,611.095276 611.551941,599.606934 611.655273,588.118896 
	C611.668457,586.652771 611.778015,585.187500 611.843506,583.709290 
	C617.219910,583.709290 622.306091,583.709290 627.979126,583.709290 
	C627.979126,595.438477 628.019897,606.883179 627.964722,618.327454 
	C627.928040,625.947998 629.853333,628.073059 637.089905,628.075317 
	C644.429321,628.077637 646.592590,625.671875 646.543213,617.947266 
	C646.471069,606.660767 646.524597,595.373474 646.524597,583.497864 
	C650.636841,583.497864 654.413635,583.497864 658.644409,583.511475 
z"/>
<path fill="#F4F4F4" opacity="1.000000" stroke="none" 
	d="
M757.756409,643.302734 
	C754.162537,643.307312 751.022400,643.307312 747.349976,643.307312 
	C747.349976,627.701111 747.349976,612.477234 747.349976,596.855347 
	C741.405090,596.855347 735.975647,596.855347 730.129578,596.855347 
	C730.129578,592.261536 730.129578,588.062622 730.129578,583.684570 
	C746.611877,583.684570 763.024231,583.684570 779.671509,583.684570 
	C779.671509,587.861450 779.671509,591.800049 779.671509,596.443481 
	C774.472595,596.443481 769.262573,596.443481 763.582764,596.443481 
	C763.582764,612.364319 763.582764,627.592590 763.582764,643.298218 
	C761.469604,643.298218 759.839844,643.298218 757.756409,643.302734 
z"/>
<path fill="#FAFAFA" opacity="1.000000" stroke="none" 
	d="
M392.918274,602.067139 
	C393.946136,601.885864 395.156616,601.578491 395.611389,600.818726 
	C398.509705,595.976868 401.072113,590.925720 404.136566,586.197083 
	C404.998932,584.866333 407.126221,583.757568 408.755096,583.635193 
	C413.329193,583.291565 417.945984,583.515320 423.169952,583.515320 
	C417.024170,593.512451 411.494843,602.765320 405.686707,611.839722 
	C402.996613,616.042664 401.522125,620.286377 401.920532,625.364502 
	C402.295898,630.148743 402.001068,634.985535 402.001068,640.052612 
	C396.534698,640.052612 391.290558,640.052612 385.491730,640.052612 
	C385.491730,634.743713 385.190155,629.463684 385.588989,624.237122 
	C385.897278,620.197449 384.890656,616.918030 382.782959,613.524109 
	C376.763977,603.832336 371.048553,593.952026 364.829376,583.500000 
	C370.701019,583.500000 376.123993,583.350403 381.524567,583.630981 
	C382.557709,583.684631 383.784149,585.273315 384.439850,586.427429 
	C387.307129,591.473938 389.997131,596.621155 392.918274,602.067139 
z"/>
<path fill="#F1F0F0" opacity="1.000000" stroke="none" 
	d="
M479.678406,322.210022 
	C479.841736,322.885071 479.753662,323.286133 479.478455,323.791840 
	C477.551331,327.085968 475.877075,330.313782 474.046173,333.450165 
	C472.984589,335.268768 471.671112,336.940277 469.802765,338.816315 
	C469.479401,323.990814 456.071014,317.715820 449.411530,305.411987 
	C447.912598,313.611908 449.351776,320.201935 453.032715,325.761749 
	C456.591125,331.136566 461.540741,335.590363 465.833374,340.397308 
	C458.241150,340.820282 448.561218,332.800079 445.183502,323.185883 
	C441.204895,311.861328 442.954987,301.176270 449.991150,295.933624 
	C456.408081,306.518951 465.873474,313.492798 477.022003,318.474518 
	C478.120056,318.965149 478.639191,320.751221 479.678406,322.210022 
z"/>
<path fill="#ECECEC" opacity="1.000000" stroke="none" 
	d="
M404.819946,680.964661 
	C402.371948,680.792542 400.361725,680.762878 398.395721,680.452759 
	C392.446960,679.514099 391.223022,677.950012 391.338470,671.754456 
	C391.419983,667.379822 394.052002,664.707825 398.973358,664.346497 
	C401.789978,664.139709 404.636475,664.241516 407.465729,664.328064 
	C411.969116,664.465881 414.548920,666.783325 415.201050,672.578674 
	C412.422424,672.009155 409.991486,671.512512 407.562012,671.009033 
	C407.401276,670.975769 407.246918,670.828003 407.097015,670.838623 
	C404.352356,671.031738 401.605865,671.214722 398.873810,671.523987 
	C398.736420,671.539551 398.599518,673.196472 398.674591,673.214722 
	C400.856934,673.744446 403.050720,674.418152 405.274078,674.553589 
	C413.907684,675.079651 417.153320,678.382446 415.481384,685.248230 
	C415.287659,686.043701 415.044617,686.908142 414.561554,687.539551 
	C410.163605,693.288330 403.887787,690.977417 398.311340,690.970276 
	C394.267426,690.965088 391.729126,688.279663 390.690247,682.928955 
	C393.778320,683.485168 396.326385,684.007690 398.895538,684.387634 
	C401.155273,684.721863 403.453491,685.149902 405.704163,685.017334 
	C406.607971,684.963989 407.430084,683.524414 408.289368,682.715698 
	C407.285522,682.136719 406.281708,681.557800 404.819946,680.964661 
z"/>
<path fill="#EEEEEE" opacity="1.000000" stroke="none" 
	d="
M616.427612,683.879822 
	C619.507874,684.385071 622.220947,684.858154 624.940063,684.895630 
	C625.670105,684.905701 626.418579,683.589600 627.158630,682.882324 
	C626.382019,682.252930 625.673828,681.211426 624.816345,681.069153 
	C621.878113,680.581604 618.883972,680.440979 615.917725,680.108704 
	C612.062500,679.676697 610.641174,677.339478 610.563354,673.620850 
	C610.482178,669.742676 610.592712,665.746033 615.230652,665.008667 
	C619.585083,664.316589 624.241028,664.099854 628.519836,664.931580 
	C630.777710,665.370544 632.513855,668.492981 634.485596,670.403809 
	C634.105164,671.134888 633.724792,671.865967 633.344360,672.596985 
	C630.819092,671.972290 628.300537,671.317932 625.765015,670.737915 
	C624.802063,670.517639 623.730286,670.182251 622.830139,670.401123 
	C620.945312,670.859375 619.141541,671.650818 617.304443,672.305481 
	C619.012451,673.024719 620.669006,673.945374 622.444763,674.399292 
	C623.857300,674.760376 625.417419,674.519287 626.909058,674.600769 
	C631.123901,674.831055 633.755432,676.655518 633.984436,681.254639 
	C634.260559,686.798828 632.675659,690.078796 628.183716,690.728455 
	C624.126038,691.315369 619.852173,691.377014 615.807251,690.773926 
	C612.598145,690.295532 610.296875,687.939636 610.594421,683.684204 
	C612.505615,683.684204 614.284119,683.684204 616.427612,683.879822 
z"/>
<path fill="#F1F0F0" opacity="1.000000" stroke="none" 
	d="
M506.745728,684.767639 
	C506.743805,678.002380 506.743805,671.706665 506.743805,664.821899 
	C512.977234,664.821899 518.895081,664.804871 524.812500,664.846619 
	C525.446838,664.851074 526.140320,665.088196 526.702698,665.402771 
	C534.625610,669.833435 531.415894,677.443176 531.478516,683.809265 
	C531.523560,688.393555 527.522583,690.607117 523.185242,690.854187 
	C517.902344,691.155212 512.589233,690.925781 506.747650,690.925781 
	C506.747650,688.820618 506.747650,687.028870 506.745728,684.767639 
M513.537659,672.787659 
	C513.537659,676.849060 513.537659,680.910400 513.537659,684.914490 
	C525.073120,685.485046 525.192261,685.479919 524.797302,676.349548 
	C524.717773,674.511780 523.570374,671.345764 522.542908,671.185913 
	C519.671448,670.739197 516.604736,671.546936 513.537659,672.787659 
z"/>
<path fill="#EEEEEE" opacity="1.000000" stroke="none" 
	d="
M595.685669,674.318848 
	C595.700378,677.268433 595.753418,679.766235 595.719971,682.262878 
	C595.645813,687.796509 592.712585,690.885498 587.109009,691.009033 
	C574.185181,691.294067 569.147217,692.575256 570.161011,674.616638 
	C570.604065,666.768921 572.717896,664.387207 580.770569,664.349487 
	C582.601868,664.340942 584.436035,664.292419 586.264221,664.370911 
	C593.079834,664.663513 595.193848,666.814636 595.685669,674.318848 
M588.977661,678.394714 
	C588.976624,677.895386 588.978271,677.396118 588.974182,676.896790 
	C588.927063,671.119263 588.153259,670.590210 582.321655,670.390686 
	C577.516968,670.226196 576.680420,672.771790 577.098816,676.675842 
	C577.187012,677.498657 577.191528,678.347900 577.098450,679.169556 
	C576.613708,683.447144 578.398193,685.124939 582.775635,685.138367 
	C587.059692,685.151489 589.659851,684.186890 588.977661,678.394714 
z"/>
<path fill="#F8F8F8" opacity="1.000000" stroke="none" 
	d="
M589.685669,335.583069 
	C588.347107,336.544678 587.315918,337.285248 586.601990,337.797974 
	C584.317688,331.398590 582.061890,325.078918 579.595581,318.169647 
	C584.941162,313.149719 593.143555,310.141754 599.693237,313.586761 
	C604.695984,316.218109 606.826050,324.311035 609.789124,329.235260 
	C602.410889,331.518768 596.202026,333.440399 589.685669,335.583069 
z"/>
<path fill="#ECECEC" opacity="1.000000" stroke="none" 
	d="
M484.363312,668.516724 
	C483.926636,663.072754 487.586060,665.407349 490.470306,664.736633 
	C490.470306,671.787598 490.940186,678.565308 490.321075,685.241943 
	C489.828949,690.549194 483.769989,692.347961 473.235931,690.995911 
	C468.839874,690.431763 466.311096,687.985962 466.279816,683.398804 
	C466.239105,677.429260 466.269867,671.459290 466.269867,665.149170 
	C468.585938,665.149170 470.307159,665.149170 472.817322,665.149170 
	C472.817322,669.980286 472.948639,674.887512 472.776031,679.783997 
	C472.636230,683.749512 474.351776,685.041016 478.191437,684.861938 
	C481.652527,684.700562 484.542023,684.706482 484.216492,679.917786 
	C483.969330,676.281555 484.287598,672.606995 484.363312,668.516724 
z"/>
<path fill="#E7E7E7" opacity="1.000000" stroke="none" 
	d="
M336.776276,677.976562 
	C322.917023,677.496826 309.535187,677.026245 296.153381,676.555725 
	C296.153015,675.950989 296.152649,675.346252 296.152313,674.741516 
	C321.633484,674.158081 347.114655,673.574646 372.886658,672.984619 
	C373.000916,674.980408 373.083282,676.419250 373.172974,677.985657 
	C361.040131,677.985657 349.146912,677.985657 336.776276,677.976562 
z"/>
<path fill="#E7E7E7" opacity="1.000000" stroke="none" 
	d="
M679.901428,673.544067 
	C695.149536,673.975647 709.912537,674.379028 724.675537,674.782471 
	C700.685608,678.330872 676.572815,678.688049 651.935791,678.707336 
	C651.806213,677.030640 651.688904,675.512451 651.534607,673.515869 
	C661.191040,673.515869 670.303650,673.515869 679.901428,673.544067 
z"/>
<path fill="#F4F4F4" opacity="1.000000" stroke="none" 
	d="
M429.234802,666.359253 
	C431.072144,665.522522 432.867615,664.786133 434.681702,664.736938 
	C440.464722,664.580139 446.254730,664.678833 452.382996,664.678833 
	C452.382996,666.562866 452.382996,668.111633 452.382996,669.999390 
	C449.825928,670.230042 447.281433,670.459534 444.326416,670.726074 
	C444.326416,677.538574 444.326416,684.089233 444.326416,690.784790 
	C441.931000,690.784790 439.980103,690.784790 437.638000,690.784790 
	C437.638000,684.213196 437.638000,677.804871 437.638000,671.914612 
	C435.121582,668.892456 428.632812,673.966614 429.234802,666.359253 
z"/>
<path fill="#E7E7E7" opacity="1.000000" stroke="none" 
	d="
M566.323303,353.295135 
	C565.241455,354.515747 563.640686,355.560822 563.159119,356.984497 
	C558.932983,369.476990 557.039124,382.156616 560.847900,395.164307 
	C561.098877,396.021667 561.018127,396.976135 561.137207,398.447754 
	C549.207520,382.123322 554.226868,351.283234 570.505615,339.803040 
	C570.804688,340.945160 571.068787,341.953674 571.623230,343.479919 
	C570.050171,347.096802 568.186707,350.195984 566.323303,353.295135 
z"/>
<path fill="#ECECEC" opacity="1.000000" stroke="none" 
	d="
M566.158325,353.828857 
	C568.186707,350.195984 570.050171,347.096802 571.960449,343.663818 
	C576.516663,342.155579 573.858704,345.288391 573.562012,346.291351 
	C572.158936,351.034882 569.967102,355.595276 569.010071,360.410492 
	C566.764954,371.706299 568.008789,382.835815 571.940613,393.668549 
	C572.517822,395.258820 572.852234,396.937225 572.861084,398.671173 
	C561.476929,385.308136 561.640381,370.154205 566.158325,353.828857 
z"/>
<path fill="#F1F0F0" opacity="1.000000" stroke="none" 
	d="
M426.059937,391.192627 
	C429.600586,389.163422 432.809814,387.279297 435.291626,385.822235 
	C437.550140,392.864288 439.937775,400.309021 442.326324,407.756653 
	C434.276459,405.702087 426.828705,401.522003 421.293274,393.332123 
	C422.917206,392.601898 424.322845,391.969788 426.059937,391.192627 
z"/>
<path fill="#E7E7E7" opacity="1.000000" stroke="none" 
	d="
M426.013123,357.968506 
	C429.184601,349.779266 433.737976,343.063446 440.718170,337.972839 
	C432.580994,351.717438 425.053131,365.587219 424.957245,382.408661 
	C421.949646,376.825623 422.338684,368.633545 426.013123,357.968506 
z"/>
<path fill="#FAFAFA" opacity="1.000000" stroke="none" 
	d="
M548.285034,665.391846 
	C550.350403,665.011475 552.135437,665.011475 554.123657,665.011475 
	C554.123657,673.794312 554.123657,682.182190 554.123657,690.750671 
	C552.113403,690.750671 550.320740,690.750671 548.004700,690.750671 
	C548.004700,682.483826 548.004700,674.128052 548.285034,665.391846 
z"/>
<path fill="#161515" opacity="1.000000" stroke="none" 
	d="
M457.288116,364.934753 
	C462.400635,371.022034 467.294678,377.073578 472.240417,383.189026 
	C464.585175,379.593781 459.868408,373.178436 456.233521,365.329346 
	C456.480743,364.936768 456.774323,364.908783 457.288116,364.934753 
z"/>
<path fill="#100E0E" opacity="1.000000" stroke="none" 
	d="
M462.589630,498.425507 
	C460.696503,499.850677 459.126892,501.075348 457.174072,502.599030 
	C454.088776,495.801910 452.438812,488.971466 456.412079,482.278717 
	C460.149292,475.983551 466.260223,472.980377 473.585236,472.904541 
	C478.416412,472.854553 482.295349,476.157898 482.241272,480.090881 
	C482.210815,482.304504 481.890381,484.920166 478.594666,483.717529 
	C474.873291,482.359558 471.535736,483.274475 469.865417,486.340271 
	C468.494598,488.856415 468.787018,492.278687 468.342163,495.299316 
	C468.857605,495.488220 469.373047,495.677094 469.888489,495.865997 
	C467.563354,496.652344 465.238251,497.438690 462.589630,498.425507 
z"/>
<path fill="#070405" opacity="1.000000" stroke="none" 
	d="
M451.981110,458.880005 
	C452.076935,458.255249 452.517487,457.883362 453.422546,457.673828 
	C454.032410,457.996704 454.177795,458.157227 454.323151,458.317749 
	C454.051636,458.670105 453.780151,459.022491 453.293518,459.456909 
	C452.827515,459.403564 452.576660,459.268219 451.981110,458.880005 
z"/>
<path fill="#070405" opacity="1.000000" stroke="none" 
	d="
M453.698578,457.571594 
	C453.936310,457.540924 454.362457,457.774841 454.555908,458.163269 
	C454.177795,458.157227 454.032410,457.996704 453.698578,457.571594 
z"/>
<path fill="#070405" opacity="1.000000" stroke="none" 
	d="
M437.169067,501.164276 
	C436.727081,501.425720 436.285095,501.687164 435.843109,501.948608 
	C435.826813,501.526215 435.810516,501.103790 436.303467,500.709900 
	C436.931519,500.880371 437.050293,501.022339 437.169067,501.164276 
z"/>
<path fill="#070405" opacity="1.000000" stroke="none" 
	d="
M436.670410,500.500000 
	C436.920319,500.499542 437.312592,500.737457 437.436951,501.069824 
	C437.050293,501.022339 436.931519,500.880371 436.670410,500.500000 
z"/>
<path fill="#070405" opacity="1.000000" stroke="none" 
	d="
M533.856506,461.842834 
	C534.051941,461.500153 534.469360,461.371338 534.886780,461.242523 
	C534.911072,461.503174 534.935303,461.763855 534.745361,462.249817 
	C534.380249,462.335632 534.229370,462.196167 533.856506,461.842834 
z"/>
<path fill="#131211" opacity="1.000000" stroke="none" 
	d="
M275.535400,609.683228 
	C272.292328,609.715332 269.491699,609.715332 266.331818,609.715332 
	C266.331818,605.371277 266.331818,601.300964 266.331818,596.458862 
	C270.002472,596.458862 273.767883,596.343506 277.522888,596.492004 
	C281.119080,596.634216 284.006042,597.608887 284.149170,602.173950 
	C284.290497,606.681702 282.472046,609.099182 277.965302,609.452148 
	C277.301697,609.504211 276.640289,609.584106 275.535400,609.683228 
z"/>
<path fill="#161515" opacity="1.000000" stroke="none" 
	d="
M637.930603,401.888977 
	C629.580261,410.836395 619.599304,412.036682 610.019531,404.955841 
	C596.415100,394.900116 590.502869,381.007294 592.634766,364.420776 
	C595.037537,345.726257 610.084900,339.234039 626.331238,348.961975 
	C640.408997,357.391388 651.420776,384.710754 637.930603,401.888977 
M626.346558,354.021942 
	C624.608398,353.062042 622.947144,351.911591 621.119324,351.173828 
	C610.866943,347.035797 603.680786,350.233704 599.713562,360.590424 
	C594.864563,373.249084 601.483398,393.227081 612.931702,400.487488 
	C622.815125,406.755493 632.899353,403.412842 637.077454,392.483795 
	C641.990356,379.632812 637.830811,364.025848 626.346558,354.021942 
z"/>
<path fill="#100E0E" opacity="1.000000" stroke="none" 
	d="
M525.955994,607.112000 
	C525.946655,611.419556 526.017029,615.249390 525.911987,619.074341 
	C525.782837,623.773621 523.244934,626.513489 518.630249,626.863098 
	C516.148438,627.051086 513.623047,627.085815 511.148651,626.854492 
	C506.903656,626.457581 504.480011,623.989380 504.330444,619.691467 
	C504.127960,613.871460 504.104218,608.044922 504.040955,602.220764 
	C504.032074,601.402893 504.093201,600.533020 504.361938,599.771973 
	C505.810974,595.668213 512.328979,593.820862 519.992798,595.490540 
	C523.968689,596.356750 526.662598,598.462830 525.998535,603.140564 
	C525.836304,604.283264 525.963623,605.467163 525.955994,607.112000 
z"/>
<path fill="#131211" opacity="1.000000" stroke="none" 
	d="
M513.576416,672.323608 
	C516.604736,671.546936 519.671448,670.739197 522.542908,671.185913 
	C523.570374,671.345764 524.717773,674.511780 524.797302,676.349548 
	C525.192261,685.479919 525.073120,685.485046 513.537659,684.914490 
	C513.537659,680.910400 513.537659,676.849060 513.576416,672.323608 
z"/>
<path fill="#131211" opacity="1.000000" stroke="none" 
	d="
M588.978760,678.848511 
	C589.659851,684.186890 587.059692,685.151489 582.775635,685.138367 
	C578.398193,685.124939 576.613708,683.447144 577.098450,679.169556 
	C577.191528,678.347900 577.187012,677.498657 577.098816,676.675842 
	C576.680420,672.771790 577.516968,670.226196 582.321655,670.390686 
	C588.153259,670.590210 588.927063,671.119263 588.974182,676.896790 
	C588.978271,677.396118 588.976624,677.895386 588.978760,678.848511 
z"/>
<path fill="#FBFBFB" opacity="1.000000" stroke="none" 
	d="
M626.643555,354.235474 
	C637.830811,364.025848 641.990356,379.632812 637.077454,392.483795 
	C632.899353,403.412842 622.815125,406.755493 612.931702,400.487488 
	C601.483398,393.227081 594.864563,373.249084 599.713562,360.590424 
	C603.680786,350.233704 610.866943,347.035797 621.119324,351.173828 
	C622.947144,351.911591 624.608398,353.062042 626.643555,354.235474 
z"/>
</svg>